<svg id="visual" viewBox="0 0 900 200" width="900" height="200" xmlns="http://www.w3.org/2000/svg" xmlns:xlink="http://www.w3.org/1999/xlink" version="1.1"><path d="M0 53L21.5 53.7C43 54.3 86 55.7 128.8 58.7C171.7 61.7 214.3 66.3 257.2 65.3C300 64.3 343 57.7 385.8 57.7C428.7 57.7 471.3 64.3 514.2 65C557 65.7 600 60.3 642.8 57C685.7 53.7 728.3 52.3 771.2 51C814 49.7 857 48.3 878.5 47.7L900 47L900 0L878.5 0C857 0 814 0 771.2 0C728.3 0 685.7 0 642.8 0C600 0 557 0 514.2 0C471.3 0 428.7 0 385.8 0C343 0 300 0 257.2 0C214.3 0 171.7 0 128.8 0C86 0 43 0 21.5 0L0 0Z" fill="#f88678"></path><path d="M0 73L21.5 75C43 77 86 81 128.8 84.3C171.7 87.7 214.3 90.3 257.2 89C300 87.7 343 82.3 385.8 83.3C428.7 84.3 471.3 91.7 514.2 92.3C557 93 600 87 642.8 83.3C685.7 79.7 728.3 78.3 771.2 77C814 75.7 857 74.3 878.5 73.7L900 73L900 45L878.5 45.7C857 46.3 814 47.7 771.2 49C728.3 50.3 685.7 51.7 642.8 55C600 58.3 557 63.7 514.2 63C471.3 62.3 428.7 55.7 385.8 55.7C343 55.7 300 62.3 257.2 63.3C214.3 64.3 171.7 59.7 128.8 56.7C86 53.7 43 52.3 21.5 51.7L0 51Z" fill="#f16a5a"></path><path d="M0 105L21.5 106C43 107 86 109 128.8 112C171.7 115 214.3 119 257.2 118.7C300 118.3 343 113.7 385.8 113.7C428.7 113.7 471.3 118.3 514.2 118C557 117.7 600 112.3 642.8 109.7C685.7 107 728.3 107 771.2 106C814 105 857 103 878.5 102L900 101L900 71L878.5 71.7C857 72.3 814 73.7 771.2 75C728.3 76.3 685.7 77.7 642.8 81.3C600 85 557 91 514.2 90.3C471.3 89.7 428.7 82.3 385.8 81.3C343 80.3 300 85.7 257.2 87C214.3 88.3 171.7 85.7 128.8 82.3C86 79 43 75 21.5 73L0 71Z" fill="#e74c3c"></path><path d="M0 169L21.5 168.3C43 167.7 86 166.3 128.8 166.7C171.7 167 214.3 169 257.2 168.3C300 167.7 343 164.3 385.8 163.7C428.7 163 471.3 165 514.2 165.3C557 165.7 600 164.3 642.8 163.7C685.7 163 728.3 163 771.2 163C814 163 857 163 878.5 163L900 163L900 99L878.5 100C857 101 814 103 771.2 104C728.3 105 685.7 105 642.8 107.7C600 110.3 557 115.7 514.2 116C471.3 116.3 428.7 111.7 385.8 111.7C343 111.7 300 116.3 257.2 116.7C214.3 117 171.7 113 128.8 110C86 107 43 105 21.5 104L0 103Z" fill="#c94034"></path><path d="M0 201L21.5 201C43 201 86 201 128.8 201C171.7 201 214.3 201 257.2 201C300 201 343 201 385.8 201C428.7 201 471.3 201 514.2 201C557 201 600 201 642.8 201C685.7 201 728.3 201 771.2 201C814 201 857 201 878.5 201L900 201L900 161L878.5 161C857 161 814 161 771.2 161C728.3 161 685.7 161 642.8 161.7C600 162.3 557 163.7 514.2 163.3C471.3 163 428.7 161 385.8 161.7C343 162.3 300 165.7 257.2 166.3C214.3 167 171.7 165 128.8 164.7C86 164.3 43 165.7 21.5 166.3L0 167Z" fill="#ac352c"></path></svg>