<svg id="visual" viewBox="0 0 900 200" width="900" height="200" xmlns="http://www.w3.org/2000/svg" xmlns:xlink="http://www.w3.org/1999/xlink" version="1.1"><path d="M0 53L21.5 53.7C43 54.3 86 55.7 128.8 55.7C171.7 55.7 214.3 54.3 257.2 56.3C300 58.3 343 63.7 385.8 66.7C428.7 69.7 471.3 70.3 514.2 70C557 69.7 600 68.3 642.8 66.7C685.7 65 728.3 63 771.2 60C814 57 857 53 878.5 51L900 49L900 0L878.5 0C857 0 814 0 771.2 0C728.3 0 685.7 0 642.8 0C600 0 557 0 514.2 0C471.3 0 428.7 0 385.8 0C343 0 300 0 257.2 0C214.3 0 171.7 0 128.8 0C86 0 43 0 21.5 0L0 0Z" fill="#276da2"></path><path d="M0 113L21.5 113C43 113 86 113 128.8 114C171.7 115 214.3 117 257.2 117.7C300 118.3 343 117.7 385.8 118.3C428.7 119 471.3 121 514.2 122.3C557 123.7 600 124.3 642.8 123.3C685.7 122.3 728.3 119.7 771.2 117.7C814 115.7 857 114.3 878.5 113.7L900 113L900 47L878.5 49C857 51 814 55 771.2 58C728.3 61 685.7 63 642.8 64.7C600 66.3 557 67.7 514.2 68C471.3 68.3 428.7 67.7 385.8 64.7C343 61.7 300 56.3 257.2 54.3C214.3 52.3 171.7 53.7 128.8 53.7C86 53.7 43 52.3 21.5 51.7L0 51Z" fill="#175a8c"></path><path d="M0 143L21.5 144.3C43 145.7 86 148.3 128.8 149C171.7 149.7 214.3 148.3 257.2 147.7C300 147 343 147 385.8 148C428.7 149 471.3 151 514.2 152.7C557 154.3 600 155.7 642.8 155C685.7 154.3 728.3 151.7 771.2 151C814 150.3 857 151.7 878.5 152.3L900 153L900 111L878.5 111.7C857 112.3 814 113.7 771.2 115.7C728.3 117.7 685.7 120.3 642.8 121.3C600 122.3 557 121.7 514.2 120.3C471.3 119 428.7 117 385.8 116.3C343 115.7 300 116.3 257.2 115.7C214.3 115 171.7 113 128.8 112C86 111 43 111 21.5 111L0 111Z" fill="#014877"></path><path d="M0 169L21.5 169.7C43 170.3 86 171.7 128.8 171.3C171.7 171 214.3 169 257.2 169C300 169 343 171 385.8 172C428.7 173 471.3 173 514.2 173.7C557 174.3 600 175.7 642.8 175C685.7 174.3 728.3 171.7 771.2 171.3C814 171 857 173 878.5 174L900 175L900 151L878.5 150.3C857 149.7 814 148.3 771.2 149C728.3 149.7 685.7 152.3 642.8 153C600 153.7 557 152.3 514.2 150.7C471.3 149 428.7 147 385.8 146C343 145 300 145 257.2 145.7C214.3 146.3 171.7 147.7 128.8 147C86 146.3 43 143.7 21.5 142.3L0 141Z" fill="#003f67"></path><path d="M0 201L21.5 201C43 201 86 201 128.8 201C171.7 201 214.3 201 257.2 201C300 201 343 201 385.8 201C428.7 201 471.3 201 514.2 201C557 201 600 201 642.8 201C685.7 201 728.3 201 771.2 201C814 201 857 201 878.5 201L900 201L900 173L878.5 172C857 171 814 169 771.2 169.3C728.3 169.7 685.7 172.3 642.8 173C600 173.7 557 172.3 514.2 171.7C471.3 171 428.7 171 385.8 170C343 169 300 167 257.2 167C214.3 167 171.7 169 128.8 169.3C86 169.7 43 168.3 21.5 167.7L0 167Z" fill="#003657"></path></svg>