<svg id="visual" viewBox="0 0 900 200" width="900" height="200" xmlns="http://www.w3.org/2000/svg" xmlns:xlink="http://www.w3.org/1999/xlink" version="1.1"><path d="M0 31L13.7 33C27.3 35 54.7 39 82 39.7C109.3 40.3 136.7 37.7 163.8 39.7C191 41.7 218 48.3 245.2 57C272.3 65.7 299.7 76.3 327 75.3C354.3 74.3 381.7 61.7 409 60.7C436.3 59.7 463.7 70.3 491 69C518.3 67.7 545.7 54.3 573 52C600.3 49.7 627.7 58.3 654.8 62C682 65.7 709 64.3 736.2 61.3C763.3 58.3 790.7 53.7 818 56.3C845.3 59 872.7 69 886.3 74L900 79L900 0L886.3 0C872.7 0 845.3 0 818 0C790.7 0 763.3 0 736.2 0C709 0 682 0 654.8 0C627.7 0 600.3 0 573 0C545.7 0 518.3 0 491 0C463.7 0 436.3 0 409 0C381.7 0 354.3 0 327 0C299.7 0 272.3 0 245.2 0C218 0 191 0 163.8 0C136.7 0 109.3 0 82 0C54.7 0 27.3 0 13.7 0L0 0Z" fill="#36b796"></path><path d="M0 99L13.7 99.7C27.3 100.3 54.7 101.7 82 102C109.3 102.3 136.7 101.7 163.8 104.7C191 107.7 218 114.3 245.2 118.7C272.3 123 299.7 125 327 123.7C354.3 122.3 381.7 117.7 409 118C436.3 118.3 463.7 123.7 491 125C518.3 126.3 545.7 123.7 573 125.7C600.3 127.7 627.7 134.3 654.8 131.3C682 128.3 709 115.7 736.2 112C763.3 108.3 790.7 113.7 818 117.7C845.3 121.7 872.7 124.3 886.3 125.7L900 127L900 77L886.3 72C872.7 67 845.3 57 818 54.3C790.7 51.7 763.3 56.3 736.2 59.3C709 62.3 682 63.7 654.8 60C627.7 56.3 600.3 47.7 573 50C545.7 52.3 518.3 65.7 491 67C463.7 68.3 436.3 57.7 409 58.7C381.7 59.7 354.3 72.3 327 73.3C299.7 74.3 272.3 63.7 245.2 55C218 46.3 191 39.7 163.8 37.7C136.7 35.7 109.3 38.3 82 37.7C54.7 37 27.3 33 13.7 31L0 29Z" fill="#21a584"></path><path d="M0 123L13.7 122.7C27.3 122.3 54.7 121.7 82 124.3C109.3 127 136.7 133 163.8 137.3C191 141.7 218 144.3 245.2 147C272.3 149.7 299.7 152.3 327 152.7C354.3 153 381.7 151 409 153.3C436.3 155.7 463.7 162.3 491 163.7C518.3 165 545.7 161 573 159.3C600.3 157.7 627.7 158.3 654.8 154.7C682 151 709 143 736.2 142.3C763.3 141.7 790.7 148.3 818 151.3C845.3 154.3 872.7 153.7 886.3 153.3L900 153L900 125L886.3 123.7C872.7 122.3 845.3 119.7 818 115.7C790.7 111.7 763.3 106.3 736.2 110C709 113.7 682 126.3 654.8 129.3C627.7 132.3 600.3 125.7 573 123.7C545.7 121.7 518.3 124.3 491 123C463.7 121.7 436.3 116.3 409 116C381.7 115.7 354.3 120.3 327 121.7C299.7 123 272.3 121 245.2 116.7C218 112.3 191 105.7 163.8 102.7C136.7 99.7 109.3 100.3 82 100C54.7 99.7 27.3 98.3 13.7 97.7L0 97Z" fill="#009473"></path><path d="M0 157L13.7 155.7C27.3 154.3 54.7 151.7 82 151C109.3 150.3 136.7 151.7 163.8 156.7C191 161.7 218 170.3 245.2 173.7C272.3 177 299.7 175 327 172.7C354.3 170.3 381.7 167.7 409 169.3C436.3 171 463.7 177 491 179C518.3 181 545.7 179 573 178C600.3 177 627.7 177 654.8 175.3C682 173.7 709 170.3 736.2 171.7C763.3 173 790.7 179 818 179.3C845.3 179.7 872.7 174.3 886.3 171.7L900 169L900 151L886.3 151.3C872.7 151.7 845.3 152.3 818 149.3C790.7 146.3 763.3 139.7 736.2 140.3C709 141 682 149 654.8 152.7C627.7 156.3 600.3 155.7 573 157.3C545.7 159 518.3 163 491 161.7C463.7 160.3 436.3 153.7 409 151.3C381.7 149 354.3 151 327 150.7C299.7 150.3 272.3 147.7 245.2 145C218 142.3 191 139.7 163.8 135.3C136.7 131 109.3 125 82 122.3C54.7 119.7 27.3 120.3 13.7 120.7L0 121Z" fill="#008064"></path><path d="M0 201L13.7 201C27.3 201 54.7 201 82 201C109.3 201 136.7 201 163.8 201C191 201 218 201 245.2 201C272.3 201 299.7 201 327 201C354.3 201 381.7 201 409 201C436.3 201 463.7 201 491 201C518.3 201 545.7 201 573 201C600.3 201 627.7 201 654.8 201C682 201 709 201 736.2 201C763.3 201 790.7 201 818 201C845.3 201 872.7 201 886.3 201L900 201L900 167L886.3 169.7C872.7 172.3 845.3 177.7 818 177.3C790.7 177 763.3 171 736.2 169.7C709 168.3 682 171.7 654.8 173.3C627.7 175 600.3 175 573 176C545.7 177 518.3 179 491 177C463.7 175 436.3 169 409 167.3C381.7 165.7 354.3 168.3 327 170.7C299.7 173 272.3 175 245.2 171.7C218 168.3 191 159.7 163.8 154.7C136.7 149.7 109.3 148.3 82 149C54.7 149.7 27.3 152.3 13.7 153.7L0 155Z" fill="#006c55"></path></svg>